# xmcd
#
# Track frame offsets: 
#        150
#        16725
#        30112
#        46275
#        61200
#        77400
#        93900
#        113250
#        128175
#        141100
#        156450
#        173625
#
# Disc length: 2509 seconds
#
# Revision: 0
# Processed by: cddbd v1.4PL0 Copyright (c) Steve Scherf et al.
# Submitted via: ExactAudioCopy v0.90b4
#
DISCID=8009cb0c
DTITLE=Beausoleil - Bayou Boogie
DYEAR=1987
DGENRE=Cajun
TTITLE0=Zydco Gris-Gris
TTITLE1=Fais Pas CA
TTITLE2=It's You I Love
TTITLE3=Dimanche Apres-Midi
TTITLE4=Madame Bozo
TTITLE5=Kolinda
TTITLE6=Maman Rosin Boudreaux
TTITLE7=Chez Seychelles
TTITLE8=Jongle A Moi
TTITLE9=The Flame Will Never Die
TTITLE10=La Valse Du Malchanceaux
TTITLE11=Beausoleil Boogie
EXTD=
EXTT0=
EXTT1=
EXTT2=
EXTT3=
EXTT4=
EXTT5=
EXTT6=
EXTT7=
EXTT8=
EXTT9=
EXTT10=
EXTT11=
PLAYORDER=
